<?xml version="1.0" encoding="UTF-8"?>
<!DOCTYPE svg PUBLIC "-//W3C//DTD SVG 1.1//EN" "http://www.w3.org/Graphics/SVG/1.1/DTD/svg11.dtd">
<!-- Creator: CorelDRAW X7 -->
<svg xmlns="http://www.w3.org/2000/svg" xml:space="preserve" width="160.794mm" height="147.122mm" version="1.1" style="shape-rendering:geometricPrecision; text-rendering:geometricPrecision; image-rendering:optimizeQuality; fill-rule:evenodd; clip-rule:evenodd"
viewBox="0 0 14073 12876"
 xmlns:xlink="http://www.w3.org/1999/xlink">
 <defs>
  <style type="text/css">
   <![CDATA[
    .fil0 {fill:black}
    .fil1 {fill:black}
   ]]>
  </style>
 </defs>
 <g id="Capa_x0020_1">
  <metadata id="CorelCorpID_0Corel-Layer"/>
  <path class="fil0" d="M4628 6696c-1628,1258 -3478,2516 -3108,3995 370,1480 2220,2738 4735,1184 2516,-1554 3034,1628 5401,888 2368,-740 962,-2886 -887,-4661 -1850,-1776 -1628,-3922 -3626,-3922 -1997,0 -814,370 -2515,2516z"/>
  <path class="fil1" d="M30 5792c666,1877 1332,1877 1877,1695 545,-181 1695,-302 1331,-1755 -363,-1453 -1513,-1876 -2118,-1574 -605,303 -1271,242 -1090,1634z"/>
  <path class="fil1" d="M2758 2181c782,2202 1563,2202 2202,1989 640,-213 1990,-355 1564,-2060 -427,-1705 -1777,-2203 -2487,-1847 -711,355 -1492,284 -1279,1918z"/>
  <path class="fil1" d="M13955 7021c378,-2044 -224,-2391 -811,-2511 -588,-120 -1691,-611 -2121,892 -430,1503 389,2486 1094,2528 705,43 1276,445 1838,-909z"/>
  <path class="fil1" d="M11284 3107c436,-2366 -260,-2768 -940,-2907 -680,-139 -1956,-707 -2454,1032 -497,1739 450,2878 1266,2927 816,49 1477,514 2128,-1052z"/>
 </g>
</svg>
