<?xml version="1.0" encoding="UTF-8"?>
<!DOCTYPE svg PUBLIC "-//W3C//DTD SVG 1.1//EN" "http://www.w3.org/Graphics/SVG/1.1/DTD/svg11.dtd">
<!-- Creator: CorelDRAW X7 -->
<svg xmlns="http://www.w3.org/2000/svg" xml:space="preserve" width="122.292mm" height="236.868mm" version="1.1" style="shape-rendering:geometricPrecision; text-rendering:geometricPrecision; image-rendering:optimizeQuality; fill-rule:evenodd; clip-rule:evenodd"
viewBox="0 0 6938 13439"
 xmlns:xlink="http://www.w3.org/1999/xlink">
 <defs>
  <style type="text/css">
   <![CDATA[
    .fil0 {fill:black}
   ]]>
  </style>
 </defs>
 <g id="Capa_x0020_1">
  <metadata id="CorelCorpID_0Corel-Layer"/>
  <path class="fil0" d="M1959 10580l0 0zm2716 -7617l0 7504c32,-1 64,-2 96,-2 1115,0 2019,666 2019,1487 0,821 -904,1487 -2019,1487 -647,0 -1223,-224 -1592,-572 -333,283 -819,461 -1359,461 -1005,0 -1820,-616 -1820,-1376 0,-760 815,-1376 1820,-1376l14 0 25 1 1 0 24 0 1 0c16,1 33,1 49,2l0 0 25 1c33,2 65,5 97,8l1 0 23 2 1 1 47 5 1 0 16 2 0 -7742c-58,4 -117,7 -177,7 -1005,0 -1820,-616 -1820,-1376 0,-760 815,-1376 1820,-1376 540,0 1026,178 1359,461 369,-348 945,-572 1592,-572 1115,0 2019,666 2019,1487 0,821 -904,1487 -2019,1487 -83,0 -164,-4 -244,-11z"/>
 </g>
</svg>
