<?xml version="1.0" encoding="UTF-8"?>
<!DOCTYPE svg PUBLIC "-//W3C//DTD SVG 1.1//EN" "http://www.w3.org/Graphics/SVG/1.1/DTD/svg11.dtd">
<!-- Creator: CorelDRAW X7 -->
<svg xmlns="http://www.w3.org/2000/svg" xml:space="preserve" width="122.292mm" height="236.868mm" version="1.1" style="shape-rendering:geometricPrecision; text-rendering:geometricPrecision; image-rendering:optimizeQuality; fill-rule:evenodd; clip-rule:evenodd"
viewBox="0 0 40173 77811"
 xmlns:xlink="http://www.w3.org/1999/xlink">
 <defs>
  <style type="text/css">
   <![CDATA[
    .fil0 {fill:#E6E6E6}
   ]]>
  </style>
 </defs>
 <g id="Capa_x0020_1">
  <metadata id="CorelCorpID_0Corel-Layer"/>
  <path class="fil0" d="M11341 61260l0 0zm15727 -44106l0 43450c184,-6 370,-9 556,-9 6457,0 11692,3854 11692,8608 0,4754 -5235,8608 -11692,8608 -3745,0 -7078,-1296 -9218,-3313 -1930,1639 -4740,2671 -7870,2671 -5819,0 -10536,-3566 -10536,-7966 0,-4400 4717,-7966 10536,-7966l86 0 143 2 3 0 139 3 7 0c95,3 189,6 284,11l0 0 143 7c190,11 378,26 565,44l3 0 134 14 8 1 272 32 5 1 92 12 0 -44827c-338,25 -681,37 -1027,37 -5819,0 -10536,-3566 -10536,-7966 0,-4399 4717,-7966 10536,-7966 3129,0 5940,1033 7870,2671 2140,-2017 5473,-3313 9218,-3313 6457,0 11692,3854 11692,8608 0,4755 -5235,8609 -11692,8609 -478,0 -950,-21 -1413,-63z"/>
 </g>
</svg>
